<svg width="23" height="28" viewBox="0 0 23 28" fill="none" xmlns="http://www.w3.org/2000/svg">
<path d="M19.0425 0.00234713C19.2543 -0.008318 19.4719 0.019674 19.6837 0.0398427C20.2059 0.47243 21.0785 2.32838 21.6298 2.91338C22.1265 3.44058 22.1276 3.80952 21.8482 4.47004C20.7867 6.97908 19.6942 9.49579 18.6114 11.9976C18.4672 12.3309 18.3759 12.9875 18.0547 13.1257C17.6546 12.9533 16.2179 10.4245 15.8274 9.98272C15.4356 9.53945 15.9922 8.48111 16.2006 7.99202C16.54 7.19574 16.8685 6.36319 17.208 5.56296C17.4962 4.88352 17.7928 4.38529 17.9941 3.65471C16.9259 3.70108 15.7399 3.67698 14.6633 3.68391C13.5694 3.69098 12.362 3.71407 11.2783 3.64824C11.4939 4.30371 11.8489 4.45884 12.1044 5.3559C11.9432 5.93575 10.5681 8.32992 10.8239 8.74863C12.2175 11.029 13.754 13.2429 15.1826 15.5056C15.4922 15.9959 15.9752 16.601 16.213 17.1053C16.203 17.1846 16.1903 17.2635 16.1747 17.3419C16.0874 17.8 15.1308 19.8267 14.8752 20.4111C13.8918 22.7182 12.8848 25.0152 11.8543 27.3016C11.8221 27.3711 11.6925 27.6519 11.6439 27.6686C11.0253 27.8809 10.0397 27.8083 9.39811 27.8171L5.79288 27.8541C4.77284 27.8613 3.43305 27.8842 2.40116 27.8203C2.24308 27.8105 2.08389 27.5957 1.99935 27.4589C1.33721 26.3669 0.397834 25.3335 0 24.0848C0.0269562 23.9472 0.0643358 23.7491 0.115444 23.6223C1.19464 20.9467 2.38839 18.3241 3.47039 15.6487C3.80348 14.8251 4.23706 13.7205 4.74117 13.0106C4.9517 13.2586 5.67222 14.3677 5.86453 14.6338C6.04803 14.8878 7.07276 16.509 7.04362 16.6601C6.70589 18.4128 4.30297 22.7349 3.98923 24.2184C5.44199 24.0156 7.8092 24.3755 9.16348 24.0554C9.297 24.0239 11.7911 18.1553 11.8696 17.7351C11.6252 17.1488 10.6745 15.807 10.293 15.2397L7.77767 11.4333C7.39593 10.8524 6.99657 10.2832 6.62415 9.6966C6.36854 9.28914 6.34816 9.05582 6.54828 8.61338C7.63167 6.2182 8.62771 3.77959 9.7452 1.40151C9.97538 0.911652 10.1085 0.429283 10.4647 0.0214507C13.3008 -0.018772 16.2178 0.0658283 19.0425 0.00234713Z" fill="#CD1F00"/>
</svg>
